<?xml version="1.0" encoding="UTF-8"?>
<svg id="Capa_1" xmlns="http://www.w3.org/2000/svg" version="1.1" viewBox="0 0 171 165">
  <!-- Generator: Adobe Illustrator 29.7.1, SVG Export Plug-In . SVG Version: 2.1.1 Build 8)  -->
  <path d="M23.97,147.35V36.23s104.74,18.15,109.76,21.06c5.02,2.92,8.88,6.91,11.58,11.99,2.7,5.08,4.05,10.86,4.05,17.33s-1.35,12.42-4.05,17.49c-2.7,5.08-6.53,9.07-11.5,11.99-4.96,2.91-10.96,4.37-17.98,4.37l-77.6-16.69v43.57h-14.26ZM38.23,91.46l74.52,16.69c7.24,0,12.75-1.96,16.52-5.91,3.78-3.94,5.67-9.1,5.67-15.47,0-4.32-.89-8.1-2.67-11.34-1.78-3.24-4.32-5.77-7.61-7.61-3.3-1.84-86.43-15.22-86.43-15.22v38.86Z"/>
  <path d="M23.97,147.35V36.23l110.96-28.23v14.16l-96.71,26.22v36.77l65.43-20.55v12.15l-65.43,20.55v50.05h-14.26Z"/>
</svg>